<svg xmlns="http://www.w3.org/2000/svg" width="575" height="575" preserveAspectRatio="xMidYMid slice" style="width:100%;height:100%">
  <defs>
    <clipPath id="a">
      <path d="M0 0h575v575H0z"/>
    </clipPath>
  </defs>
  <g clip-path="url(#a)">
    <g display="block">
      <path stroke-miterlimit="10" stroke="#FFF" stroke-width="4.179" d="M290.376 121.661l-23.269-39.7 23.269-39.7h46.533l23.268 39.7-23.268 39.7h-46.533z" fill="none"/>
      <path fill="#FFF" d="M325.892 81.961l-6.127-10.447h-12.244l-6.123 10.447 6.123 10.447h12.244l6.127-10.447z"/>
      <path stroke-miterlimit="10" stroke="#FFF" stroke-width="4.179" d="M327.295 111.214h-29.253" fill="none"/>
      <path stroke-miterlimit="10" stroke-dasharray="4.179 4.179" stroke="#F8F8F8" stroke-width="4.179" d="M310.58 54.798h20.895l10.447 16.716" fill="none"/>
    </g>
    <path stroke-miterlimit="10" stroke="#FFF" stroke-width="4.179" d="M82.479 264.891L37.71 187.58l44.769-77.311h89.538l44.769 77.311-44.769 77.311H82.479z" fill="none" display="block"/>
    <g display="block">
      <path stroke-miterlimit="10" stroke="#FFF" stroke-width="4.179" d="M100.074 200.407l2.198-29.838 27.173-12.52 24.977 17.317-2.199 29.838-27.171 12.525-24.978-17.322z" fill="none"/>
      <path stroke-miterlimit="10" stroke-dasharray="8.358 4.179" stroke="#FFF" stroke-width="4.179" d="M175.625 186.119c.978 26.72-19.892 49.17-46.608 50.144-26.716.977-49.17-19.893-50.144-46.608-.978-26.721 19.887-49.17 46.607-50.144 26.717-.977 49.171 19.888 50.145 46.608z" fill="none"/>
      <path stroke-miterlimit="10" stroke="#FFF" stroke-width="4.179" d="M138.222 187.487c.221 6.06-4.514 11.153-10.573 11.375-6.059.217-11.154-4.513-11.375-10.577-.221-6.059 4.513-11.15 10.573-11.371 6.063-.221 11.153 4.513 11.375 10.573z" fill="none"/>
    </g>
    <g display="block">
      <path fill="#F8F8F8" d="M167.186 127.114a6.17 6.17 0 00-6.047-6.301 6.173 6.173 0 10-.255 12.344 6.175 6.175 0 006.302-6.043zM95.16 132.344a6.17 6.17 0 00-2.086-8.479c-2.917-1.764-6.716-.836-8.479 2.085a6.17 6.17 0 002.085 8.479 6.173 6.173 0 008.48-2.085zM59.163 197.244a6.177 6.177 0 002.435-8.387 6.187 6.187 0 00-8.391-2.437 6.182 6.182 0 00-2.431 8.392 6.172 6.172 0 008.387 2.432zM99.8 252.484a6.175 6.175 0 00-12.348-.258 6.17 6.17 0 006.046 6.302 6.173 6.173 0 006.302-6.044zM170.043 253.389a6.172 6.172 0 00-2.085-8.479 6.172 6.172 0 00-8.479 2.085 6.17 6.17 0 002.085 8.479 6.172 6.172 0 008.479-2.085zM201.431 192.919a6.182 6.182 0 002.432-8.392 6.173 6.173 0 00-8.387-2.432 6.179 6.179 0 00-2.437 8.387 6.187 6.187 0 008.392 2.437z"/>
    </g>
    <path stroke-miterlimit="10" stroke="#FFF" stroke-width="4.179" d="M100.832 480.277l-10.559-18.02 10.559-18.02h21.122l10.559 18.02-10.559 18.02h-21.122z" fill="none" display="block"/>
    <path stroke-miterlimit="10" stroke="#FFF" stroke-width="8.358" d="M234.935 399.473l-60.796-101.201 60.796-101.201h121.588l60.791 101.201-60.791 101.201H234.935z" fill="none" display="block"/>
    <g display="block">
      <path fill="#FFF" d="M300.085 312.055l9.781-9.625-3.583-13.241-13.358-3.622-9.781 9.624 3.582 13.242 13.359 3.622z"/>
      <path stroke-miterlimit="10" stroke-dasharray="8.358 4.179" stroke="#FFF" stroke-width="4.179" d="M353.997 296.412c1.179 32.354-24.086 59.537-56.436 60.715-32.354 1.184-59.535-24.086-60.719-56.434-1.179-32.354 24.085-59.537 56.434-60.716 32.354-1.184 59.537 24.081 60.721 56.435z" fill="none"/>
      <path stroke-miterlimit="10" stroke="#F8F8F8" stroke-width="4.179" d="M336.806 286.593c6.604 22.856-6.568 46.735-29.424 53.344-22.861 6.608-46.74-6.569-53.343-29.426-6.608-22.856 6.567-46.738 29.423-53.341 22.856-6.604 46.736 6.567 53.344 29.423z" fill="none"/>
      <path stroke-miterlimit="10" stroke-dasharray="30 0 0 0 0 30" stroke="#FFF" stroke-width="8.358" d="M343.69 356.648c32.612-26.388 37.656-74.216 11.268-106.828-26.389-32.612-74.215-37.662-106.827-11.274-32.612 26.389-37.657 74.216-11.269 106.828 26.389 32.612 74.216 37.662 106.828 11.274z" fill="none"/>
    </g>
    <g display="block">
      <g stroke-miterlimit="10" stroke="#FFF" stroke-width="4.179" fill="none">
        <path d="M146.905 449.785l-23.265-39.7 23.265-39.7h46.537l23.268 39.7-23.268 39.7h-46.537z"/>
        <path d="M146.905 449.785l-23.265-39.7 23.265-39.7h46.537l23.268 39.7-23.268 39.7h-46.537z"/>
      </g>
      <path stroke-miterlimit="10" stroke="#F8F8F8" stroke-width="4.179" d="M151.694 441.427l-18.367-31.342 18.367-31.342h36.958l18.367 31.342-18.367 31.342h-36.958z" fill="none"/>
      <path stroke-miterlimit="10" stroke-dasharray="8.358 4.179" stroke="#FFF" stroke-width="4.179" d="M183.951 408.983c.276 7.61-5.663 14.004-13.272 14.28-7.61.276-14.004-5.663-14.28-13.273-.28-7.605 5.663-13.999 13.273-14.279 7.605-.276 13.999 5.667 14.279 13.272z" fill="none"/>
    </g>
    <g display="block">
      <g stroke-miterlimit="10" stroke="#FFF" stroke-width="4.179" fill="none">
        <path d="M415.291 258.078l-40.808-68.953 40.808-68.951h81.611l40.807 68.951-40.807 68.953h-81.611z"/>
        <path d="M415.291 258.078l-40.808-68.953 40.808-68.951h81.611l40.807 68.951-40.807 68.953h-81.611z"/>
        <path d="M415.291 258.078l-40.808-68.953 40.808-68.951h81.611l40.807 68.951-40.807 68.953h-81.611z"/>
      </g>
      <path stroke-miterlimit="10" stroke="#F8F8F8" stroke-width="4.179" d="M449.468 249.72h-30.03l-15.6-26.368M462.005 130.62h28.271l13.519 22.984" fill="none"/>
      <path stroke-miterlimit="10" stroke="#FFF" stroke-width="4.179" d="M441.502 212.11l-13.604-22.983 13.604-22.985h29.189l13.603 22.985-13.603 22.983h-29.189z" fill="none"/>
      <path stroke-miterlimit="10" stroke-dasharray="8.358 4.179" stroke="#FFF" stroke-width="4.179" d="M494.091 199.703c5.842-20.982-6.431-42.729-27.418-48.572-20.982-5.842-42.729 6.431-48.572 27.418-5.842 20.983 6.431 42.726 27.418 48.572 20.983 5.842 42.73-6.436 48.572-27.418z" fill="none"/>
      <path fill="#FFF" d="M452.073 183.761l-2.629 6.235 4.025 5.366 6.652-.869 2.629-6.235-4.024-5.366-6.653.869z"/>
    </g>
    <g display="block">
      <path stroke-miterlimit="10" stroke="#FFF" stroke-width="4.179" d="M270.759 534.741l-23.269-39.7 23.269-39.7h46.532l23.269 39.7-23.269 39.7h-46.532z" fill="none"/>
      <path fill="#FFF" d="M290.336 501.325l-3.673-6.269 3.673-6.267h7.345l3.674 6.267-3.674 6.269h-7.345z"/>
      <path stroke-miterlimit="10" stroke-dasharray="8.358 4.179" stroke="#FFF" stroke-width="4.179" d="M314.038 494.327c.405 11.058-8.237 20.356-19.299 20.761-11.061.402-20.355-8.237-20.757-19.294-.405-11.066 8.233-20.36 19.295-20.761 11.061-.405 20.355 8.237 20.761 19.294z" fill="none"/>
      <path fill="#F8F8F8" d="M275.684 526.384h33.432v-4.18h-33.432v4.18z"/>
    </g>
  </g>
</svg>