<svg xmlns="http://www.w3.org/2000/svg" width="575" height="575" preserveAspectRatio="xMidYMid slice" style="width:100%;height:100%">
  <defs>
    <clipPath id="a">
      <path d="M0 0h575v575H0z"/>
    </clipPath>
  </defs>
  <g clip-path="url(#a)">
    <g display="block">
      <path stroke-miterlimit="10" stroke-dasharray="8.01 4.005" stroke="#FFF" stroke-width="4.005" d="M408.431 308.618c2.437 66.669-49.635 122.689-116.304 125.126-66.669 2.436-122.688-49.635-125.125-116.304-2.436-66.669 49.634-122.69 116.303-125.126 66.669-2.436 122.69 49.635 125.126 116.304z" fill="none"/>
      <path stroke-miterlimit="10" stroke="#FFF" stroke-width="8.01" d="M318.562 211.188c42.292 12.806 73.762 51.327 75.465 97.957.123 3.343.088 6.657-.094 9.933" fill="none"/>
      <path stroke-miterlimit="10" stroke="#F8F8F8" stroke-width="4.005" d="M468.735 316.603c-1.991 100.093-84.747 179.621-184.84 177.63-100.093-1.991-179.62-84.745-177.629-184.838 1.99-100.093 84.745-179.621 184.838-177.63 100.093 1.99 179.622 84.745 177.631 184.838zM120.194 284.613c7.242-43.011 30.618-80.406 63.586-105.902" fill="none"/>
      <g stroke-miterlimit="10" stroke="#FFF" stroke-width="4.005" fill="none">
        <path d="M289.137 314.402s0 0 0 0zM289.137 314.402s0 0 0 0z"/>
      </g>
      <path stroke-miterlimit="10" stroke="#F8F8F8" stroke-width="4.005" d="M108.308 207.088s0 0 0 0z" fill="none"/>
      <path stroke-miterlimit="10" stroke="#FFF" stroke-width="4.005" d="M252.074 171.176s0 0 0 0zM181.589 492.191s0 0 0 0zM466.692 418.91s0 0 0 0zM171.389 492.675s0 0 0 0zM251.589 169.233s0 0 0 0z" fill="none"/>
      <path stroke-miterlimit="10" stroke="#F8F8F8" stroke-width="4.005" d="M467.176 429.11s0 0 0 0z" fill="none"/>
      <path stroke-miterlimit="10" stroke="#FFF" stroke-width="4.005" d="M399.572 218.378l-24.997 23.417-1.326 78.825-2.005 68.995L392.726 412M286.041 226.84l78.241 1.551 26.659-26.64" fill="none"/>
      <path stroke-miterlimit="10" stroke="#FFF" stroke-width="4.005" d="M295.589 227.056l-9.549-.216-69.16-1.383-27.017-29.825M179.545 212.493l23.385 23.385-1.373 68.703-1.598 78.706-24.143 22.006M185.527 422.683l25.191-25.076 78.242 1.55" fill="none"/>
      <path stroke-miterlimit="10" stroke="#FFF" stroke-width="4.005" d="M383.844 428.666l-25.726-28.125-69.159-1.384-9.548-.215" fill="none"/>
      <path stroke-miterlimit="10" stroke="#FFF" stroke-width="8.01" d="M344.586 467.984l-126.326-2.512" fill="none"/>
      <path stroke-miterlimit="10" stroke="#FFF" stroke-width="4.005" d="M320.255 303.534c5.228 18.09-5.2 36.993-23.29 42.22-18.09 5.228-36.993-5.199-42.22-23.289-5.228-18.091 5.199-36.993 23.29-42.221 18.09-5.228 36.992 5.2 42.22 23.29zM225.334 108.301s0 0 0 0z" fill="none"/>
      <path stroke-miterlimit="10" stroke="#F8F8F8" stroke-width="4.005" d="M470.56 423.707s0 0 0 0z" fill="none"/>
      <path stroke-miterlimit="10" stroke-dasharray="4.005 4.005" stroke="#FFF" stroke-width="4.005" d="M252.051 370.083l-32.583-58.408 34.879-57.064 68.68 1.366 32.581 58.406-34.878 57.066-68.679-1.366z" fill="none"/>
      <path fill="#FFF" d="M289.562 322.031l-8.88-2.639-2.062-9.031 6.818-6.392 8.88 2.638 2.062 9.031-6.818 6.393z"/>
      <path stroke-miterlimit="10" stroke="#FFF" stroke-width="4.005" d="M204.609 453.281l-83.098-142.249 83.107-142.246 166.206.005 83.099 142.25-83.108 142.245-166.206-.005z" fill="none"/>
      <path stroke-miterlimit="10" stroke-dasharray="4.005 4.005" stroke="#F8F8F8" stroke-width="16.02" d="M223.637 166.849h128.159" fill="none"/>
      <path stroke-miterlimit="10" stroke="#F8F8F8" stroke-width="4.005" d="M307.589 318.079c2.962-10.928-3.496-22.188-14.425-25.15-10.928-2.962-22.189 3.497-25.151 14.425-2.962 10.929 3.497 22.188 14.425 25.15 10.929 2.962 22.189-3.496 25.151-14.425z" fill="none"/>
    </g>
    <g display="block">
      <path stroke-miterlimit="10" stroke="#F8F8F8" stroke-width="4.005" d="M205.682 119.739s0 0 0 0z" fill="none"/>
      <path stroke-miterlimit="10" stroke="#FFF" stroke-width="4.005" d="M96.624 393.163s0 0 0 0z" fill="none"/>
      <path stroke-miterlimit="10" stroke="#F8F8F8" stroke-width="4.005" d="M211.309 111.219s0 0 0 0z" fill="none"/>
      <path stroke-miterlimit="10" stroke="#FFF" stroke-width="4.005" d="M370.048 502.22s0 0 0 0zM88.104 387.535s0 0 0 0z" fill="none"/>
      <path stroke-miterlimit="10" stroke="#F8F8F8" stroke-width="4.005" d="M364.42 510.74s0 0 0 0zM465.947 393.495l36.315 16.888M498.312 418.465l-35.64-18.266M459.199 406.673l34.928 19.592M502.263 410.382l-11.938-5.552M483.937 442.8l-33.204-22.39M489.434 434.26l-34.133-20.948M427.728 448.719l28.52 28.118M449.81 483.12l-27.42-29.19M416.941 458.86l26.302 30.198M456.248 476.837l-9.376-9.242M428.086 501.204l-23.738-32.256M436.136 495.008l-25.099-31.207M97.689 359.449l-38.8 9.928M56.828 360.62l39.15-8.432M94.566 344.977l-39.438 6.955M58.89 369.377l12.752-3.264M52.543 332.682l39.876-3.696M53.697 342.773l39.682-5.404M92.582 290.972l-39.838-4.116M53.843 277.926l39.648 5.642M94.663 276.315l-39.408-7.126M52.745 286.856l13.096 1.354M59.492 250.232l38.692 10.336M57.083 260.099l39.098 8.668M111.351 225.207l-36.05-17.448M79.376 199.739l35.352 18.816M118.302 212.135l-34.62-20.13M94.127 175.628l32.852 22.904M88.498 184.083l33.804 21.474M151.945 169.355l-27.718-28.908M130.839 134.348l26.588 29.948M163.013 159.522l-25.444-30.926M124.228 140.447l9.11 9.502M153.061 116.881l22.822 32.91M144.842 122.848l24.212 31.9M208.874 131.353l-16.168-36.64M201.005 91.241l14.751 37.232M222.636 125.896l-13.342-37.76M192.706 94.713l5.314 12.044M227.858 82.422l10.2 38.728M218.095 85.219l11.851 38.254" fill="none"/>
      <path stroke-miterlimit="10" stroke="#FFF" stroke-width="4.005" d="M358.454 109.031s0 0 0 0z" fill="none"/>
      <path stroke-miterlimit="10" stroke="#F8F8F8" stroke-width="4.005" d="M343.562 122.799l11.4-38.392M363.536 87.133l-12.864 37.926M357.583 127.549l14.28-37.414M354.963 84.407l-3.748 12.62M389.711 97.799l-17.302 36.12M380.458 93.609l-15.736 36.828M424.085 145.949s0 0 0 0zM405.357 153.731l23.95-32.098M436.413 127.151l-25.164 31.156M416.878 163.03l26.315-30.188M429.308 121.632l-7.873 10.552M457.298 146.194l-28.704 27.93M450.06 139.069l-27.48 29.134M472.909 203.605s0 0 0 0zM452.642 204.383l33.622-21.758M491.006 190.27l-34.431 20.454M460.208 217.11l35.174-19.146M486.264 182.625l-11.052 7.152M503.961 215.391l-36.628 16.196M499.654 206.192l-35.898 17.752M370.34 508.375s0 0 0 0zM372.194 488.179l17.218 36.158M381.218 528.048l-15.82-36.792M358.595 494.03l14.426 37.36M389.413 524.338l-5.66-11.886M354.629 537.637l-11.313-38.416M364.308 534.559l-12.949-37.896M498.36 272.629s0 0 0 0zM479.021 266.52l38.994-9.128M519.897 266.188l-39.316 7.628M481.846 281.053l39.572-6.144M518.016 257.39l-12.818 3.002M523.609 294.207l-39.946 2.88M522.661 284.095l-39.784 4.588M236.976 500.514l-10.4 38.674M217.935 536.686l11.876-38.248M222.835 496.129l-13.304 37.773M226.575 539.19l3.419-12.713M191.492 526.703l16.356-36.556M200.849 530.651l14.774-37.223M174.214 471.019l-23.16 32.673M143.817 498.349l24.396-31.76M162.471 462.006l-25.572 30.821M151.054 503.693l7.614-10.74M122.472 479.82l28.014-28.62M129.882 486.767l26.76-29.794" fill="none"/>
      <path stroke-miterlimit="10" stroke="#FFF" stroke-width="4.005" d="M198.647 529.782a240.392 240.392 0 01-16.495-7.466l17.88-35.833c14.035 6.994 29.144 12.419 44.398 15.906l-8.917 39.042a238.344 238.344 0 01-36.866-11.649zm-39.28-20.461a234.677 234.677 0 01-43.613-36.372l29.183-27.422a194.9 194.9 0 0036.17 30.159l-21.74 33.635zm102.024 36.516l4.508-39.792a195.412 195.412 0 0047.084-.398l5.162 39.713a235.061 235.061 0 01-56.754.477zm-162.52-92.979a237.342 237.342 0 01-28.33-49.138l36.834-15.714a197.13 197.13 0 0023.547 40.836l-32.051 24.016zm245.053 87.68l-9.524-38.897a197.547 197.547 0 0044.113-16.606l18.485 35.525a237.404 237.404 0 01-53.074 19.978zM61.588 379.073a236.504 236.504 0 01-9.753-55.874l39.998-2.089a196.191 196.191 0 008.1 46.396l-38.345 11.567zm357.97 128.121l-22.284-33.271a195.84 195.84 0 0035.7-30.737l29.601 26.971a235.468 235.468 0 01-43.017 37.037zM51.928 296.953a235.504 235.504 0 0110.194-55.829l38.244 11.885a195.399 195.399 0 00-8.456 46.325l-39.982-2.381zm426.845 153.761l-32.621-23.033c9.193-12.695 18.136-29.626 22.673-40.751l37.085 15.12c-6.05 14.834-16.063 33.378-27.137 48.664zM107.975 232.557l-36.723-15.988c7.593-17.44 17.249-33.903 28.699-48.931l31.858 24.275c-9.508 12.471-17.524 26.144-23.834 40.644zm365.947 140.857a195.744 195.744 0 009.565-46.124l39.912 3.341a236.253 236.253 0 01-11.519 55.557l-37.958-12.774zm-327.974-198.06l-28.94-27.681a236.132 236.132 0 0143.878-35.991l21.498 33.792a196.21 196.21 0 00-36.436 29.88zm338.134 130.164a195.969 195.969 0 00-6.987-46.569l38.606-10.651a236.163 236.163 0 018.416 56.098l-40.035 1.122zM201.397 134.811l-17.633-35.958a237.659 237.659 0 0153.533-18.711l8.598 39.116a197.506 197.506 0 00-44.498 15.553zm268.75 103.47a197.471 197.471 0 00-22.573-41.385l32.615-23.245a237.457 237.457 0 0127.156 49.792l-37.197 14.838zM267.4 115.765l-4.22-39.827a235.04 235.04 0 0156.761.885l-5.466 39.675a194.898 194.898 0 00-47.075-.733zm166.563 64.119a194.988 194.988 0 00-35.437-31.023l22.545-33.104a235.194 235.194 0 0142.72 37.402l-29.828 26.725zm-98.111-59.215l9.849-38.82c18.209 4.618 36.214 11.548 52.895 20.371l-18.727 35.403c-13.876-7.341-28.881-13.116-44.017-16.954z" fill="none"/>
    </g>
    <g display="block">
      <path fill="#FFF" d="M280.858 30.64h16.02v214.266h-16.02V30.64z"/>
      <path fill="#0A2155" d="M292.873 242.15h-8.01V34.645h8.01V242.15zm8.01-215.515h-8.01-8.01-8.01v222.274h24.03V240.9 34.645v-8.01z"/>
      <path fill="#FFF" d="M40.568 443.37l185.559-107.133 8.009 13.873L48.578 457.243l-8.01-13.873z"/>
      <path fill="#0A2155" d="M224.66 341.708l4.005 6.936L50.042 451.772l-4.005-6.937L224.66 341.708zm2.932-10.942l-6.938 4.005L42.032 437.899l-6.937 4.005 4.005 6.936 4.006 6.937 4.005 6.937 6.936-4.005 178.622-103.128 6.938-4.004-4.005-6.937-4.006-6.937-4.004-6.937z"/>
      <path fill="#F8F8F8" d="M282.86 22.63h12.016v24.03H282.86V22.63z"/>
      <path fill="#0A2155" d="M292.874 44.658h-8.01V24.634h8.01v20.024zm4.005-24.031h-4.005-8.01-4.005V48.663h16.02v-4.005-20.026-4.005z"/>
      <path fill="#F8F8F8" d="M34.633 449.108l20.81-12.015 6.006 10.407-20.81 12.013-6.006-10.405z"/>
      <path fill="#0A2155" d="M54.71 439.829l4.004 6.937-17.342 10.012-4.005-6.937 17.343-10.012zm1.466-5.471l-3.468 2.002-17.343 10.013-3.469 2.003 2.004 3.467 4.004 6.937 2.002 3.468 3.47-2.001 17.341-10.013 3.469-2.003-2.002-3.468-4.006-6.937-2.002-3.468z"/>
      <path fill="#FFF" d="M340.599 351.844l8.01-13.874 185.558 107.133-8.009 13.873-185.559-107.132z"/>
      <path fill="#0A2155" d="M350.075 343.441l178.621 103.127-4.005 6.937L346.07 350.377l4.005-6.936zm-2.932-10.942l-4.005 6.937-4.005 6.937-4.005 6.936 6.937 4.005 178.622 103.128 6.936 4.005 4.005-6.937 4.005-6.937 4.005-6.937-6.937-4.005L354.08 336.504l-6.937-4.005z"/>
      <path fill="#F8F8F8" d="M513.286 449.233l6.006-10.405 20.81 12.013-6.006 10.407-20.81-12.015z"/>
      <path fill="#0A2155" d="M520.025 441.563l17.342 10.012-4.005 6.937-17.341-10.012 4.004-6.937zm-1.465-5.471l-2.003 3.468-4.005 6.937-2.003 3.469 3.468 2.002 17.343 10.012 3.468 2.003 2.003-3.469 4.004-6.937 2.004-3.468-3.469-2.002-17.341-10.013-3.469-2.002z"/>
    </g>
    <g display="block">
      <path stroke-miterlimit="10" stroke="#FFF" stroke-width="4.005" d="M365.36 312.954l-43.995.25M247.86 244.44l22.544 39.235M209.3 312.976l43.63-.056M270.998 343.247l-21.365 37.648" fill="none"/>
      <path stroke-miterlimit="10" stroke="#FFF" stroke-width="8.01" d="M209.363 311.869l38.646-67.731 77.977.403 40.042 69.364-38.643 67.73-77.98-.402-40.042-69.364z" fill="none"/>
      <path stroke-miterlimit="10" stroke="#FFF" stroke-width="4.005" d="M325.847 245.125l-21.486 38.023M304.502 342.65l22.647 39.08" fill="none"/>
    </g>
    <g display="block">
      <path fill="#FFF" d="M356.688 206.074a6.009 6.009 0 01-12.013-.246 6.008 6.008 0 0112.013.246zM396.737 250.128a6.008 6.008 0 11-12.012-.246 6.008 6.008 0 0112.012.246zM408.752 346.248a6.008 6.008 0 11-12.014-.248 6.008 6.008 0 0112.014.248zM176.464 346.248a6.007 6.007 0 11-5.883-6.13 6.008 6.008 0 015.883 6.13zM216.516 414.084a6.007 6.007 0 016.131-5.881 6.005 6.005 0 015.882 6.129 6.008 6.008 0 11-12.013-.248zM336.665 418.089a6.005 6.005 0 016.129-5.881 6.008 6.008 0 11-6.129 5.881zM220.521 205.827a6.007 6.007 0 115.882 6.13 6.007 6.007 0 01-5.882-6.13zM176.466 249.881a6.008 6.008 0 1112.013.248 6.008 6.008 0 01-12.013-.248z"/>
    </g>
  </g>
</svg>