<svg xmlns="http://www.w3.org/2000/svg" width="575" height="575" preserveAspectRatio="xMidYMid slice" style="width:100%;height:100%">
  <defs>
    <clipPath id="a">
      <path d="M0 0h575v575H0z"/>
    </clipPath>
  </defs>
  <g clip-path="url(#a)">
    <g display="block">
      <path fill="#FFF" d="M444.251 281.679l-26.849-42.191h-46.028l-26.849 42.191 26.849 46.027h46.028l26.849-46.027zm-95.89 0l23.013-38.356h46.028l23.014 38.356-23.014 42.192h-46.028l-23.013-42.192z"/>
      <path fill="#EFF1F7" d="M403.015 284.496l-3.837-6.543h-7.667l-3.836 6.543 3.836 6.543h7.667l3.837-6.543z"/>
      <path fill="#F8F8F8" d="M415.498 284.505l-.017-.739-3.835.126.015.613c0 .94-.08 1.887-.241 2.819l3.782.652c.195-1.146.296-2.316.296-3.471zM408.609 269.324l-2.52 2.892a16.235 16.235 0 012.328 2.508l3.068-2.301a20.01 20.01 0 00-2.876-3.099zM408.862 293.634l3.184 2.144a20.476 20.476 0 001.986-3.732l-3.551-1.438a16.74 16.74 0 01-1.619 3.026zM410.17 277.662a16.342 16.342 0 011.097 3.245l3.743-.84a20.333 20.333 0 00-1.358-4.008l-3.482 1.603zM389.681 303.844c1.354.395 2.757.652 4.16.751l.276-3.827a16.514 16.514 0 01-3.367-.601l-1.069 3.677zM398.061 304.462a20.23 20.23 0 004.112-1.005l-1.297-3.609c-1.069.383-2.19.656-3.329.817l.514 3.797zM400.14 268.89c1.089.337 2.147.791 3.152 1.351l1.864-3.356a20.517 20.517 0 00-3.897-1.658l-1.119 3.663zM405.978 301.616a20.328 20.328 0 003.341-2.601l-2.658-2.765a16.28 16.28 0 01-2.704 2.106l2.021 3.26zM382.27 299.828a20.25 20.25 0 003.487 2.397l1.829-3.371a16.384 16.384 0 01-2.827-1.941l-2.489 2.915zM384.928 267.249l1.983 3.279a16.747 16.747 0 013.103-1.453l-1.258-3.625a20.05 20.05 0 00-3.828 1.799zM395.361 268.181c.476 0 .948.019 1.416.058l.325-3.821a21.736 21.736 0 00-1.741-.072l-.737.015c-.587.019-1.173.061-1.748.134l.471 3.805a14.14 14.14 0 011.397-.104l.617-.015zM377.142 293.166a20.702 20.702 0 002.216 3.603l3.042-2.34a16.309 16.309 0 01-1.794-2.916l-3.464 1.653zM375.742 289.169l3.732-.882a16.574 16.574 0 01-.438-3.352h-1.918l-1.91.299a19.9 19.9 0 00.534 3.935zM375.538 280.765l3.771.714c.214-1.127.54-2.232.981-3.287l-3.536-1.477a20.364 20.364 0 00-1.216 4.05zM378.791 273.006l3.152 2.187a16.365 16.365 0 012.24-2.594l-2.62-2.8a20.322 20.322 0 00-2.772 3.207z"/>
      <path fill="#FFF" d="M379.046 254.83h30.684v-3.834h-30.684v3.834zM379.046 316.199h30.684v-3.834h-30.684v3.834z"/>
    </g>
    <g display="block">
      <path fill="#FFF" d="M183.425 282.349l-3.835-6.544h-7.673l-3.832 6.544 3.832 6.544h7.673l3.835-6.544z"/>
      <path fill="#FFF" d="M225.621 281.679l-26.849-42.191h-46.028l-26.849 42.191 26.849 46.027h46.028l26.849-46.027zm-95.89 0l23.013-38.356h46.028l23.013 38.356-23.013 42.192h-46.028l-23.013-42.192z"/>
      <path fill="#FFF" d="M197.141 290.707a22.625 22.625 0 001.227-7.39l-.015-.852a23.121 23.121 0 00-.814-5.278l-3.697 1.017c.391 1.423.621 2.907.675 4.419l.016.694c0 2.11-.346 4.177-1.017 6.148l3.625 1.242zM188.476 269.393a18.976 18.976 0 014.128 5.562l3.448-1.684a22.865 22.865 0 00-4.96-6.686l-2.616 2.808zM190.087 300.907a22.908 22.908 0 005.343-6.383l-3.341-1.887a19.09 19.09 0 01-4.453 5.32l2.451 2.95zM163.924 263.628a22.75 22.75 0 00-6.279 5.474l3.004 2.382a18.986 18.986 0 015.224-4.549l-1.949-3.307zM178.742 305.915a22.612 22.612 0 007.893-2.653l-1.868-3.349a18.814 18.814 0 01-6.562 2.205l.537 3.797zM179.305 264.675a18.654 18.654 0 016.417 2.593l2.063-3.238a22.69 22.69 0 00-7.724-3.118l-.756 3.763zM156.837 296.423a22.824 22.824 0 005.944 5.834l2.144-3.184a18.919 18.919 0 01-4.948-4.852l-3.14 2.202zM174.849 264.315l.967-.012.13-3.835-.364-.004-.882.015c-2.398.088-4.75.545-6.998 1.362l1.312 3.601a18.957 18.957 0 015.835-1.127zM152.859 280.547l3.805.46c.28-2.316.974-4.541 2.071-6.608l-3.387-1.8a22.661 22.661 0 00-2.489 7.948zM154.757 292.798l3.49-1.596a18.936 18.936 0 01-1.676-6.72l-3.828.238a22.786 22.786 0 002.014 8.078zM174.569 306.119l.157-3.835a18.693 18.693 0 01-6.75-1.545l-1.528 3.521a22.75 22.75 0 008.121 1.859z"/>
      <path fill="#F8F8F8" d="M156.58 320.035h34.52v-3.836h-34.52v3.836z"/>
    </g>
    <g display="block">
      <path fill="#FFF" d="M283.155 423.597h-26.85l-11.506-19.178h-3.836l11.506 23.014h30.686v-3.836zM333.019 323.871l-15.344-23.014h-30.684v3.836h30.684l11.507 19.178h3.837z"/>
      <path fill="#F8F8F8" d="M289.251 365.258a4.963 4.963 0 00-4.864-5.067 4.965 4.965 0 00-5.067 4.86 4.972 4.972 0 004.864 5.074 4.972 4.972 0 005.067-4.867z"/>
      <path fill="#FFF" d="M371.374 366.063l-42.192-76.712h-88.218l-42.192 76.712 42.192 72.876h88.218l42.192-72.876zm-126.575 69.041l-42.192-72.877 42.192-69.041h80.548l42.192 69.041-42.192 72.877h-80.548z"/>
      <path fill="#FFF" d="M310.004 366.062l-11.506-23.013h-30.685l-11.507 23.013 11.507 23.015h30.685l11.506-23.015zm-38.356 19.178l-11.507-19.178 11.507-19.177h23.014l11.507 19.177-11.507 19.178h-23.014z"/>
      <path stroke-miterlimit="10" stroke="#F8F8F8" stroke-width="3.836" d="M324.709 363.815c0 22.739-18.435 41.174-41.173 41.174-22.739 0-41.173-18.435-41.173-41.174s18.434-41.172 41.173-41.172c22.738 0 41.173 18.433 41.173 41.172z" fill="none"/>
    </g>
    <g display="block">
      <path fill="#FFF" d="M317.675 201.131l-15.342-23.014h-26.849l-15.343 23.014 15.343 23.014h26.849l15.342-23.014zm-53.698 0l11.507-19.178h26.849l11.507 19.178-11.507 19.178h-26.849l-11.507-19.178zM324.947 205.136l-.039.192a38.945 38.945 0 01-1.228 6.828l-.038.191 7.058 1.96.191.035h.806l-.579-.269c.733-2.643 1.193-5.366 1.462-8.131l-7.633-.806zM323.489 191.366l.038.191c.652 2.264 1.112 4.565 1.339 6.789v.231l7.671-.806-.034-.192a43.784 43.784 0 00-1.611-8.17v-.23l-7.403 2.187zM296.333 238.467l-.192.039 1.765 7.48.191-.036a47.025 47.025 0 007.936-2.688l.154-.153-3.104-6.943-.191.077a39.988 39.988 0 01-6.559 2.224zM325.019 227.305c1.577-2.34 2.958-4.794 4.027-7.364l.081-.153-6.866-2.953-.038-.039-.234.114a34.521 34.521 0 01-3.295 6.099l-.115.154 6.367 4.295.073-.153zM299.781 158.802c-1.53-.422-3.064-.806-4.641-1.036l-.188-.033-1.266 7.552.188.039c1.308.191 2.57.497 3.836.842.886.23 1.764.537 2.765.883v.958l2.953-8.05-.191-.042a40.037 40.037 0 00-3.456-1.113zM314.399 228.188l-.115.193a39.639 39.639 0 01-5.332 4.453l-.153.111 4.372 6.329.154-.116a46.372 46.372 0 006.286-5.254l.154.192v-.457l-5.213-5.258-.153-.193zM310.79 163.485l-.154-.081-3.836 6.406-.034.038.114.23a40.81 40.81 0 015.6 4.109l.112.111 5.102-5.754-.154-.111a45.005 45.005 0 00-6.75-4.948zM323.255 174.566l-.115-.153-6.057 4.679.111.155a37.152 37.152 0 013.763 5.867l.073.155 6.831-3.491-.076-.154c-1.308-2.49-2.801-4.871-4.53-7.058zM269.25 234.597l-3.793 6.67.191.077c2.378 1.38 4.948 2.493 7.629 3.414l.196.077 2.378-7.096v-1.223l-.307.915a33.947 33.947 0 01-6.141-2.76l-.153-.074zM256.519 169.695a45.68 45.68 0 00-5.37 6.176l-.119-.115-.073.422 6.061 4.334.111.039h.46l-.188-.192a36.031 36.031 0 014.45-5.14l.114-.115-5.293-5.559-.153.15zM258.821 225.771l-.12-.152-5.941 4.871.116.118c1.802 2.183 3.754 4.215 5.867 5.979l.151.116 5.066-6.022h-.311a38.743 38.743 0 01-4.828-4.91zM254.866 220.287l.081-.073-.192-.119.192-.077a41.206 41.206 0 01-2.766-6.405l-.111-.154-8.213 2.647h1.078a43.069 43.069 0 003.26 7.518v.307l6.671-3.644zM270.673 160.566l-.311.042a46.986 46.986 0 00-7.284 3.871l-.153.118 4.066 6.249.23.076h.077a33.067 33.067 0 015.941-3.183l.31.54v-.805l-2.841-6.793-.035-.115zM278.612 158.073l-.307-.614 1.879 9.781v-1.684c2.263-.464 4.527-.694 6.751-.771l.038-7.671h-.192a45.282 45.282 0 00-8.169.959zM287.741 247.135c.652 0 1.339.001 2.033-.037h.229l-.383-7.671h-.191a44.083 44.083 0 01-6.943-.309l-.153-.037-1.078 7.441h.195l-.042.191c2.114.269 4.224.422 6.333.422zM246.853 183.273a46.325 46.325 0 00-2.493 6.789c-.042.23-.115.46-.195.69l-.154.614 7.445 1.88.115-.423c.076-.23.111-.46.192-.69a34.734 34.734 0 012.071-5.634l.073-.196-6.977-3.183-.077.153zM242.788 199.421a56.03 56.03 0 00-.081 2.727c0 1.876.119 3.794.346 5.673l.042.192 7.594-.959v-.192c-.23-1.573-.311-3.184-.311-4.714 0-.771 0-1.499.081-2.267l-7.671-.652v.192z"/>
      <path fill="#F8F8F8" d="M283.154 262.501h-26.849l-10.759-19.178h-6.296l13.219 23.014h30.685v-3.836zM333.019 162.775l-15.344-23.014h-30.684v3.836h30.684l11.507 19.178h3.837z"/>
      <path fill="#FFF" d="M371.374 204.967l-42.192-76.712h-88.218l-42.192 76.712 42.192 72.876h88.218l42.192-72.876zm-126.575 69.041l-42.192-72.877 42.192-69.041h80.548l42.192 69.041-42.192 72.877h-80.548z"/>
      <path fill="#F8F8F8" d="M297.47 201.131l-3.837-6.642h-7.671l-3.836 6.642 3.836 6.644h7.671l3.837-6.644z"/>
    </g>
    <g display="block">
      <path stroke-miterlimit="10" stroke="#F8F8F8" stroke-width="3.836" d="M172.007 475.489l.97 1.654h1.918" fill="none"/>
      <path stroke-miterlimit="10" stroke-dasharray="3.823 3.823 3.823 3.823 3.823 3.823" stroke="#F8F8F8" stroke-width="3.836" d="M178.718 477.143h28.673M209.302 477.143h189.243" fill="none"/>
      <path stroke-miterlimit="10" stroke="#F8F8F8" stroke-width="3.836" d="M400.457 477.143h1.918l.97-1.654" fill="none"/>
      <path stroke-miterlimit="10" stroke-dasharray="3.776 3.776 3.776 3.776 3.776 3.776" stroke="#F8F8F8" stroke-width="3.836" d="M405.257 472.233l14.334-24.428M420.546 446.176l94.602-161.214" fill="none"/>
      <path stroke-miterlimit="10" stroke="#F8F8F8" stroke-width="3.836" d="M516.103 283.333l.972-1.654-.972-1.654" fill="none"/>
      <path stroke-miterlimit="10" stroke-dasharray="3.776 3.776 3.776 3.776 3.776 3.776" stroke="#F8F8F8" stroke-width="3.836" d="M514.193 276.769l-14.334-24.428M498.903 250.713L404.301 89.499" fill="none"/>
      <path stroke-miterlimit="10" stroke="#F8F8F8" stroke-width="3.836" d="M403.345 87.869l-.97-1.654h-1.918" fill="none"/>
      <path stroke-miterlimit="10" stroke-dasharray="3.823 3.823 3.823 3.823 3.823 3.823" stroke="#F8F8F8" stroke-width="3.836" d="M396.634 86.215h-28.673M366.05 86.215H176.807" fill="none"/>
      <path stroke-miterlimit="10" stroke="#F8F8F8" stroke-width="3.836" d="M174.895 86.215h-1.918l-.97 1.654" fill="none"/>
      <path stroke-miterlimit="10" stroke-dasharray="3.776 3.776 3.776 3.776 3.776 3.776" stroke="#F8F8F8" stroke-width="3.836" d="M170.095 91.126l-14.334 24.428M154.806 117.182L60.204 278.396" fill="none"/>
      <path stroke-miterlimit="10" stroke="#F8F8F8" stroke-width="3.836" d="M59.248 280.025l-.97 1.654.97 1.654" fill="none"/>
      <path stroke-miterlimit="10" stroke-dasharray="3.776 3.776 3.776 3.776 3.776 3.776" stroke="#F8F8F8" stroke-width="3.836" d="M61.159 286.59l14.334 24.426M76.449 312.646l94.602 161.214" fill="none"/>
      <path fill="#F8F8F8" d="M461.306 145.238l-11.754-19.992-9.92 5.831 11.754 19.993 9.92-5.832zM276.854 78.29h23.014V66.885h-23.014V78.29zM310.326 78.29h23.014V66.885h-23.014V78.29zM265.348 485.069h-23.014v11.404h23.014v-11.404zM299.868 485.069h-23.014v11.404h23.014v-11.404zM139.402 435.305l-10.979-18.681-9.921 5.83 10.98 18.682 9.92-5.831z"/>
      <path stroke-miterlimit="10" stroke="#FFF" stroke-width="2.877" d="M460.964 154.323l76.712 129.257-122.739 209.091h-99.726M114.388 409.497L37.677 280.239 160.415 71.148h99.726" fill="none"/>
      <path stroke-miterlimit="10" stroke="#FFF" stroke-width="7.671" d="M350.521 71.148l63.879.921 24.301 42.802M230.84 492.672l-63.882-.697-24.452-42.715" fill="none"/>
      <path fill="#FFF" d="M177.777 457.836a6.366 6.366 0 1112.731-.001 6.366 6.366 0 01-12.731.001zM385.175 457.836a6.366 6.366 0 1112.733-.001 6.366 6.366 0 01-12.733.001zM75.316 282.792a6.366 6.366 0 1112.733 0 6.366 6.366 0 01-12.733 0zM491.425 282.792a6.366 6.366 0 1112.732 0 6.367 6.367 0 01-12.732 0zM385.175 104.377a6.366 6.366 0 1112.731 0 6.366 6.366 0 01-12.731 0zM177.612 104.377a6.367 6.367 0 1112.733.001 6.367 6.367 0 01-12.733-.001z"/>
    </g>
  </g>
</svg>